<svg width="50" height="50" viewBox="0 0 50 50" fill="none" xmlns="http://www.w3.org/2000/svg">
<circle cx="25" cy="25" r="25" fill="#0054D1"/>
<path d="M25.7941 28.3691C25.3004 28.3849 24.8084 28.3033 24.3462 28.129C23.884 27.9547 23.4607 27.691 23.1004 27.353C22.3728 26.6705 21.9461 25.7269 21.9142 24.7298C21.8823 23.7327 22.2478 22.7637 22.9303 22.0361C23.6128 21.3085 24.5564 20.8818 25.5535 20.8498C25.7529 20.8379 25.9489 20.9056 26.0984 21.0382C26.2479 21.1707 26.3386 21.3572 26.3506 21.5567C26.3625 21.7561 26.2948 21.9521 26.1622 22.1016C26.0297 22.251 25.8432 22.3417 25.6437 22.3537C25.2119 22.3836 24.7978 22.5371 24.4508 22.7959C24.1038 23.0548 23.8386 23.408 23.6869 23.8134C23.5351 24.2188 23.5032 24.6593 23.595 25.0823C23.6868 25.5054 23.8983 25.8931 24.2044 26.1992C24.5105 26.5053 24.8982 26.7168 25.3213 26.8086C25.7443 26.9004 26.1848 26.8685 26.5902 26.7168C26.9957 26.565 27.3489 26.2998 27.6077 25.9528C27.8665 25.6059 28.02 25.1917 28.0499 24.7599C28.0653 24.5618 28.157 24.3774 28.3057 24.2455C28.4544 24.1137 28.6484 24.0447 28.847 24.0531C28.9458 24.0588 29.0425 24.084 29.1315 24.1272C29.2206 24.1704 29.3002 24.2308 29.3659 24.3048C29.4315 24.3789 29.4819 24.4652 29.5142 24.5587C29.5464 24.6523 29.5599 24.7513 29.5538 24.8501C29.4925 25.8049 29.0696 26.7005 28.371 27.3544C27.6725 28.0082 26.7509 28.3711 25.7941 28.3691ZM19.7637 20.8498C19.6016 20.8459 19.4445 20.7935 19.3125 20.6995C19.153 20.5798 19.0475 20.4017 19.0193 20.2043C18.9911 20.0068 19.0425 19.8063 19.1621 19.6468C19.9349 18.6183 20.9365 17.784 22.0876 17.2097C23.2387 16.6355 24.5077 16.3371 25.7941 16.3383C27.1306 16.3361 28.4473 16.6614 29.629 17.2857C29.8045 17.3814 29.9347 17.5429 29.9911 17.7347C30.0476 17.9265 30.0255 18.1328 29.9297 18.3083C29.834 18.4838 29.6725 18.6141 29.4807 18.6705C29.2889 18.7269 29.0826 18.7048 28.9071 18.6091C27.4824 17.8644 25.8384 17.6536 24.2719 18.0149C22.7055 18.3762 21.3198 19.2857 20.3652 20.5791C20.2914 20.6662 20.1991 20.7356 20.095 20.7825C19.9909 20.8293 19.8777 20.8523 19.7637 20.8498Z" fill="white"/>
<path d="M25.7947 32.8808C23.6022 32.8769 21.5007 32.0041 19.9504 30.4539C18.4001 28.9036 17.5274 26.802 17.5234 24.6096C17.5256 24.0542 17.581 23.5002 17.6889 22.9554C17.7086 22.8566 17.7476 22.7627 17.8036 22.6791C17.8597 22.5954 17.9316 22.5236 18.0154 22.4677C18.0992 22.4119 18.1932 22.373 18.292 22.3535C18.3908 22.334 18.4924 22.3341 18.5912 22.3538C18.6899 22.3736 18.7838 22.4126 18.8675 22.4686C18.9512 22.5246 19.023 22.5966 19.0788 22.6804C19.1347 22.7642 19.1735 22.8581 19.193 22.9569C19.2126 23.0557 19.2125 23.1574 19.1927 23.2561C19.0046 24.1827 19.0127 25.1384 19.2165 26.0617C19.4203 26.9849 19.8154 27.8553 20.3761 28.6165C20.9369 29.3777 21.6509 30.013 22.4723 30.4814C23.2936 30.9498 24.2039 31.2409 25.1446 31.3359C26.0853 31.4309 27.0355 31.3278 27.9339 31.0331C28.8323 30.7384 29.659 30.2588 30.3606 29.625C31.0623 28.9913 31.6234 28.2176 32.0078 27.3537C32.3921 26.4899 32.5912 25.5551 32.5921 24.6096C32.5937 23.525 32.3304 22.4564 31.8251 21.4966C31.7777 21.4097 31.7479 21.3143 31.7374 21.2159C31.7268 21.1175 31.7358 21.018 31.7637 20.923C31.7917 20.8281 31.838 20.7395 31.9002 20.6625C31.9623 20.5854 32.039 20.5214 32.1259 20.474C32.2128 20.4266 32.3082 20.3968 32.4066 20.3862C32.505 20.3757 32.6046 20.3847 32.6995 20.4126C32.7945 20.4405 32.883 20.4869 32.96 20.549C33.0371 20.6112 33.1011 20.6879 33.1485 20.7748C33.7624 21.9591 34.0773 23.2756 34.0659 24.6096C34.0619 26.802 33.1892 28.9036 31.6389 30.4539C30.0886 32.0041 27.9871 32.8769 25.7947 32.8808Z" fill="white"/>
<path d="M25.7945 37.3924C22.4043 37.3924 19.153 36.0457 16.7557 33.6484C14.3585 31.2512 13.0117 27.9998 13.0117 24.6096C13.0117 21.2194 14.3585 17.968 16.7557 15.5708C19.153 13.1736 22.4043 11.8268 25.7945 11.8268C27.218 11.8243 28.6317 12.0633 29.9752 12.5336C30.0707 12.5651 30.1589 12.6155 30.2346 12.6816C30.3103 12.7478 30.3719 12.8285 30.4159 12.9189C30.4598 13.0093 30.4852 13.1077 30.4905 13.208C30.4958 13.3084 30.4809 13.4089 30.4467 13.5034C30.4125 13.598 30.3597 13.6847 30.2914 13.7585C30.2231 13.8322 30.1407 13.8916 30.0491 13.933C29.9575 13.9743 29.8585 13.9969 29.758 13.9994C29.6574 14.0018 29.5575 13.9841 29.4639 13.9472C28.2844 13.5358 27.0437 13.3274 25.7945 13.3307C23.5638 13.3307 21.3831 13.9922 19.5283 15.2315C17.6735 16.4709 16.2278 18.2324 15.3741 20.2933C14.5205 22.3543 14.2971 24.6221 14.7323 26.81C15.1675 28.9979 16.2417 31.0076 17.8191 32.585C19.3965 34.1624 21.4062 35.2366 23.5941 35.6718C25.782 36.107 28.0498 35.8837 30.1108 35.03C32.1717 34.1763 33.9333 32.7307 35.1726 30.8758C36.412 29.021 37.0735 26.8404 37.0735 24.6096C37.0768 23.3604 36.8683 22.1197 36.4569 20.9402C36.42 20.8467 36.4023 20.7467 36.4048 20.6462C36.4072 20.5457 36.4298 20.4467 36.4712 20.355C36.5126 20.2634 36.5719 20.181 36.6457 20.1127C36.7194 20.0444 36.8062 19.9916 36.9007 19.9574C36.9952 19.9232 37.0957 19.9083 37.1961 19.9136C37.2965 19.9189 37.3948 19.9443 37.4852 19.9883C37.5756 20.0322 37.6563 20.0939 37.7225 20.1695C37.7887 20.2452 37.839 20.3334 37.8705 20.4289C38.3408 21.7725 38.5798 23.1861 38.5773 24.6096C38.5733 27.9986 37.2253 31.2476 34.8289 33.644C32.4326 36.0404 29.1835 37.3884 25.7945 37.3924Z" fill="white"/>
<path d="M25.7943 25.3616C25.6956 25.3628 25.5979 25.3433 25.5072 25.3045C25.4166 25.2656 25.335 25.2082 25.2679 25.136C25.196 25.0685 25.1386 24.9869 25.0994 24.8964C25.0603 24.8059 25.04 24.7083 25.04 24.6096C25.04 24.511 25.0603 24.4134 25.0994 24.3228C25.1386 24.2323 25.196 24.1508 25.2679 24.0833L37.9304 11.4208C37.9995 11.3517 38.0816 11.2968 38.1719 11.2594C38.2622 11.222 38.359 11.2028 38.4567 11.2028C38.5545 11.2028 38.6513 11.222 38.7416 11.2594C38.8319 11.2968 38.914 11.3517 38.9831 11.4208C39.0522 11.4899 39.107 11.572 39.1445 11.6623C39.1819 11.7526 39.2011 11.8494 39.2011 11.9471C39.2011 12.0449 39.1819 12.1417 39.1445 12.232C39.107 12.3223 39.0522 12.4044 38.9831 12.4735L26.3206 25.136C26.2535 25.2082 26.1719 25.2656 26.0813 25.3045C25.9906 25.3433 25.8929 25.3628 25.7943 25.3616Z" fill="white"/>
<path d="M36.4266 18.9851H36.2612L32.8023 18.1881C32.6648 18.1609 32.5386 18.0935 32.4395 17.9945C32.3404 17.8954 32.273 17.7691 32.2459 17.6317L31.4488 14.1728C31.4196 14.0504 31.4223 13.9225 31.4565 13.8014C31.4907 13.6803 31.5554 13.57 31.6443 13.481L35.9002 9.22509C35.9936 9.12842 36.1116 9.0591 36.2414 9.02464C36.3713 8.99018 36.5081 8.99189 36.6371 9.02959C36.7667 9.06667 36.8839 9.13788 36.9765 9.23576C37.0691 9.33365 37.1336 9.45462 37.1635 9.58602L37.8553 12.5937L40.863 13.2855C41.0624 13.3294 41.2362 13.4507 41.3462 13.6227C41.4562 13.7948 41.4933 14.0034 41.4495 14.2029C41.4056 14.4023 41.2843 14.5761 41.1123 14.6861C40.9402 14.7961 40.7315 14.8332 40.5321 14.7894L37.0732 13.9171C36.9303 13.8842 36.7995 13.8118 36.6958 13.708C36.5921 13.6043 36.5197 13.4736 36.4867 13.3306L36.0055 11.1951L32.9978 14.2029L33.5993 16.7895L36.186 17.391L38.1259 15.4661C38.2665 15.3283 38.4555 15.2512 38.6523 15.2512C38.8491 15.2512 39.0381 15.3283 39.1786 15.4661C39.2491 15.536 39.3051 15.6192 39.3432 15.7108C39.3814 15.8024 39.4011 15.9007 39.4011 16C39.4011 16.0992 39.3814 16.1975 39.3432 16.2892C39.3051 16.3808 39.2491 16.4639 39.1786 16.5338L36.9529 18.7596C36.8858 18.8318 36.8043 18.8892 36.7136 18.928C36.623 18.9669 36.5252 18.9863 36.4266 18.9851Z" fill="white"/>
</svg>
