<svg width="28" height="28" viewBox="0 0 28 28" fill="none" xmlns="http://www.w3.org/2000/svg">
<mask id="mask0_155_190" style="mask-type:luminance" maskUnits="userSpaceOnUse" x="0" y="0" width="29" height="28">
<path d="M28.0084 0.319824H0.333984V27.9942H28.0084V0.319824Z" fill="white"/>
</mask>
<g mask="url(#mask0_155_190)">
<path d="M15.7332 2.01499C14.9258 1.02886 13.4178 1.02886 12.6105 2.01499L11.4668 3.41191C11.3884 3.50765 11.2576 3.54269 11.1418 3.49897L9.45291 2.86104C8.26066 2.41072 6.95467 3.16472 6.74853 4.42242L6.45653 6.20404C6.43652 6.32615 6.3408 6.42187 6.21867 6.44188L4.43706 6.73388C3.17938 6.94002 2.42536 8.246 2.87569 9.43826L3.51362 11.1272C3.55734 11.243 3.5223 11.3737 3.42656 11.4521L2.02963 12.5958C1.04351 13.4032 1.04351 14.9112 2.02963 15.7186L3.42656 16.8622C3.5223 16.9406 3.55734 17.0714 3.51362 17.1872L2.87569 18.8761C2.42537 20.0683 3.17937 21.3743 4.43706 21.5805L6.21867 21.8725C6.3408 21.8925 6.43652 21.9882 6.45653 22.1103L6.74853 23.8919C6.95467 25.1496 8.26065 25.9036 9.45291 25.4533L11.1418 24.8154C11.2576 24.7717 11.3884 24.8066 11.4668 24.9025L12.6105 26.2993C13.4178 27.2855 14.9258 27.2855 15.7332 26.2993L16.8768 24.9025C16.9552 24.8066 17.086 24.7717 17.2018 24.8154L18.8907 25.4533C20.083 25.9036 21.389 25.1496 21.5951 23.8919L21.8872 22.1103C21.9071 21.9882 22.0028 21.8925 22.1249 21.8725L23.9066 21.5805C25.1643 21.3743 25.9183 20.0683 25.468 18.8761L24.83 17.1872C24.7863 17.0714 24.8213 16.9406 24.9171 16.8622L26.314 15.7186C27.3002 14.9112 27.3002 13.4032 26.314 12.5958L24.9171 11.4521C24.8213 11.3737 24.7863 11.243 24.83 11.1272L25.468 9.43826C25.9183 8.246 25.1643 6.94002 23.9066 6.73388L22.1249 6.44188C22.0028 6.42187 21.9071 6.32615 21.8872 6.20404L21.5951 4.42242C21.389 3.16473 20.083 2.41071 18.8907 2.86104L17.2018 3.49897C17.086 3.54269 16.9552 3.50765 16.8768 3.41191L15.7332 2.01499Z" fill="#4DC4FF"/>
<path fill-rule="evenodd" clip-rule="evenodd" d="M21.1243 9.51013C21.462 9.84787 21.462 10.3954 21.1243 10.7332L13.0526 18.8048C12.8905 18.9671 12.6704 19.0582 12.4411 19.0582C12.2117 19.0582 11.9917 18.9671 11.8296 18.8048L7.21717 14.1924C6.87943 13.8547 6.87943 13.3072 7.21717 12.9695C7.5549 12.6317 8.10248 12.6317 8.44021 12.9695L12.4411 16.9703L19.9013 9.51013C20.239 9.1724 20.7865 9.1724 21.1243 9.51013Z" fill="#ECEFF1"/>
</g>
</svg>
