<svg width="50" height="50" viewBox="0 0 50 50" fill="none" xmlns="http://www.w3.org/2000/svg">
<circle cx="25" cy="25" r="25" fill="#0054D1"/>
<path fill-rule="evenodd" clip-rule="evenodd" d="M10.2828 23.4902C11.8743 21.7177 14.2898 19.6872 17.3904 18.3051C15.7656 20.0777 14.7764 22.4252 14.7764 25C14.7764 27.5748 15.7656 29.9223 17.3904 31.6949C14.2898 30.3128 11.8743 28.2823 10.2828 26.5098C9.49787 25.6357 9.49787 24.3643 10.2828 23.4902ZM9.01311 22.3868C11.8998 19.1719 17.3864 15.0772 24.79 15.0011C24.8403 15.0003 24.8906 15 24.941 15H24.9656H25C32.5099 15 38.073 19.1417 40.9869 22.3868C42.3377 23.8913 42.3377 26.1087 40.9869 27.6132C38.073 30.8583 32.5099 35 25 35H24.9656H24.941C24.8906 35 24.8403 34.9997 24.79 34.9989C17.3864 34.9227 11.8998 30.8281 9.01312 27.6132C7.6623 26.1087 7.66229 23.8913 9.01311 22.3868ZM24.965 16.6667C24.9136 16.6668 24.8623 16.6671 24.8111 16.6677C20.1929 16.7359 16.4705 20.4403 16.4705 25C16.4705 29.5597 20.1929 33.2641 24.8111 33.3323C24.8623 33.3329 24.9136 33.3332 24.965 33.3333C29.6321 33.3206 33.4115 29.5945 33.4115 25C33.4115 20.4055 29.6321 16.6794 24.965 16.6667ZM35.1056 25C35.1056 27.6174 34.0835 29.9999 32.4104 31.7823C35.6069 30.3995 38.0918 28.32 39.7172 26.5098C40.5021 25.6357 40.5021 24.3643 39.7172 23.4902C38.0918 21.68 35.6069 19.6005 32.4104 18.2177C34.0835 20.0001 35.1056 22.3826 35.1056 25ZM24.9999 30C27.8068 30 30.0822 27.7614 30.0822 25C30.0822 24.2281 29.9044 23.4971 29.587 22.8443C29.2803 23.1464 28.8565 23.3333 28.3882 23.3333C27.4526 23.3333 26.6941 22.5872 26.6941 21.6667C26.6941 21.206 26.8841 20.789 27.1912 20.4873C26.5277 20.1749 25.7846 20 24.9999 20C22.1931 20 19.9176 22.2386 19.9176 25C19.9176 27.7614 22.1931 30 24.9999 30Z" fill="white"/>
</svg>
